<svg xmlns="http://www.w3.org/2000/svg" viewBox="0 0 100 100" preserveAspectRatio="xMidYMid" width="199" height="199" style="shape-rendering: auto; display: block; background: transparent;" xmlns:xlink="http://www.w3.org/1999/xlink"><g><g transform="rotate(0 50 50)">
  <rect fill="#000000" height="15" width="7" ry="7.5" rx="3.5" y="22.5" x="46.5">
    <animate repeatCount="indefinite" begin="-1.2731481481481481s" dur="1.3888888888888888s" keyTimes="0;1" values="1;0" attributeName="opacity"></animate>
  </rect>
</g><g transform="rotate(30 50 50)">
  <rect fill="#000000" height="15" width="7" ry="7.5" rx="3.5" y="22.5" x="46.5">
    <animate repeatCount="indefinite" begin="-1.1574074074074074s" dur="1.3888888888888888s" keyTimes="0;1" values="1;0" attributeName="opacity"></animate>
  </rect>
</g><g transform="rotate(60 50 50)">
  <rect fill="#000000" height="15" width="7" ry="7.5" rx="3.5" y="22.5" x="46.5">
    <animate repeatCount="indefinite" begin="-1.0416666666666665s" dur="1.3888888888888888s" keyTimes="0;1" values="1;0" attributeName="opacity"></animate>
  </rect>
</g><g transform="rotate(90 50 50)">
  <rect fill="#000000" height="15" width="7" ry="7.5" rx="3.5" y="22.5" x="46.5">
    <animate repeatCount="indefinite" begin="-0.9259259259259258s" dur="1.3888888888888888s" keyTimes="0;1" values="1;0" attributeName="opacity"></animate>
  </rect>
</g><g transform="rotate(120 50 50)">
  <rect fill="#000000" height="15" width="7" ry="7.5" rx="3.5" y="22.5" x="46.5">
    <animate repeatCount="indefinite" begin="-0.8101851851851851s" dur="1.3888888888888888s" keyTimes="0;1" values="1;0" attributeName="opacity"></animate>
  </rect>
</g><g transform="rotate(150 50 50)">
  <rect fill="#000000" height="15" width="7" ry="7.5" rx="3.5" y="22.5" x="46.5">
    <animate repeatCount="indefinite" begin="-0.6944444444444444s" dur="1.3888888888888888s" keyTimes="0;1" values="1;0" attributeName="opacity"></animate>
  </rect>
</g><g transform="rotate(180 50 50)">
  <rect fill="#000000" height="15" width="7" ry="7.5" rx="3.5" y="22.5" x="46.5">
    <animate repeatCount="indefinite" begin="-0.5787037037037037s" dur="1.3888888888888888s" keyTimes="0;1" values="1;0" attributeName="opacity"></animate>
  </rect>
</g><g transform="rotate(210 50 50)">
  <rect fill="#000000" height="15" width="7" ry="7.5" rx="3.5" y="22.5" x="46.5">
    <animate repeatCount="indefinite" begin="-0.4629629629629629s" dur="1.3888888888888888s" keyTimes="0;1" values="1;0" attributeName="opacity"></animate>
  </rect>
</g><g transform="rotate(240 50 50)">
  <rect fill="#000000" height="15" width="7" ry="7.5" rx="3.5" y="22.5" x="46.5">
    <animate repeatCount="indefinite" begin="-0.3472222222222222s" dur="1.3888888888888888s" keyTimes="0;1" values="1;0" attributeName="opacity"></animate>
  </rect>
</g><g transform="rotate(270 50 50)">
  <rect fill="#000000" height="15" width="7" ry="7.5" rx="3.5" y="22.5" x="46.5">
    <animate repeatCount="indefinite" begin="-0.23148148148148145s" dur="1.3888888888888888s" keyTimes="0;1" values="1;0" attributeName="opacity"></animate>
  </rect>
</g><g transform="rotate(300 50 50)">
  <rect fill="#000000" height="15" width="7" ry="7.5" rx="3.5" y="22.5" x="46.5">
    <animate repeatCount="indefinite" begin="-0.11574074074074073s" dur="1.3888888888888888s" keyTimes="0;1" values="1;0" attributeName="opacity"></animate>
  </rect>
</g><g transform="rotate(330 50 50)">
  <rect fill="#000000" height="15" width="7" ry="7.5" rx="3.5" y="22.5" x="46.5">
    <animate repeatCount="indefinite" begin="0s" dur="1.3888888888888888s" keyTimes="0;1" values="1;0" attributeName="opacity"></animate>
  </rect>
</g><g></g></g><!-- [ldio] generated by https://loading.io --></svg>